<?xml version="1.0" encoding="utf-8"?>
<!-- Generator: Adobe Illustrator 28.1.0, SVG Export Plug-In . SVG Version: 6.00 Build 0)  -->
<svg version="1.1" id="Ebene_1" xmlns="http://www.w3.org/2000/svg" xmlns:xlink="http://www.w3.org/1999/xlink" x="0px" y="0px"
	 viewBox="0 0 145.4 145.4" style="enable-background:new 0 0 145.4 145.4;" xml:space="preserve">
<g>
	<g>
		<path d="M74.6,10.3c-0.2,0-0.4-0.1-0.5-0.2s-0.2-0.3-0.2-0.6L74.2,5c0-0.2,0.1-0.4,0.2-0.6c0.1-0.1,0.3-0.2,0.6-0.2
			c0.2,0,0.4,0.1,0.5,0.2s0.2,0.3,0.2,0.6l0,0.8l-0.1-0.3c0.2-0.4,0.5-0.7,0.9-0.9c0.4-0.2,0.8-0.3,1.3-0.3c0.5,0,0.9,0.1,1.1,0.3
			s0.5,0.5,0.6,0.8c0.1,0.4,0.2,0.8,0.1,1.4l-0.2,2.9c0,0.2-0.1,0.4-0.2,0.6c-0.1,0.1-0.3,0.2-0.6,0.2c-0.2,0-0.4-0.1-0.5-0.2
			c-0.1-0.1-0.2-0.3-0.2-0.6l0.2-2.8c0-0.5,0-0.8-0.2-1c-0.2-0.2-0.4-0.3-0.8-0.4c-0.4,0-0.8,0.1-1.1,0.3c-0.3,0.3-0.4,0.6-0.5,1.1
			l-0.2,2.6C75.4,10.1,75.1,10.4,74.6,10.3z"/>
		<path d="M83.3,11.2c-0.6-0.1-1.1-0.3-1.5-0.6c-0.4-0.3-0.7-0.7-0.9-1.2c-0.2-0.5-0.2-1.1-0.1-1.7c0.1-0.5,0.2-0.9,0.4-1.2
			c0.2-0.3,0.5-0.6,0.8-0.8s0.7-0.4,1-0.4c0.4-0.1,0.8-0.1,1.3,0c0.6,0.1,1.1,0.3,1.5,0.6s0.7,0.7,0.9,1.2c0.2,0.5,0.2,1,0.1,1.7
			c-0.1,0.5-0.2,0.9-0.4,1.2s-0.5,0.6-0.8,0.9s-0.7,0.4-1,0.4C84.2,11.3,83.7,11.3,83.3,11.2z M83.5,10.1c0.3,0.1,0.6,0,0.8-0.1
			c0.2-0.1,0.5-0.3,0.6-0.5c0.2-0.3,0.3-0.6,0.4-1c0.1-0.6,0.1-1.1-0.2-1.5c-0.2-0.4-0.5-0.6-1-0.6c-0.3,0-0.6,0-0.8,0.1
			c-0.2,0.1-0.5,0.3-0.6,0.5c-0.2,0.3-0.3,0.6-0.4,1c-0.1,0.6-0.1,1.1,0.2,1.5S83,10,83.5,10.1z"/>
		<path d="M89.4,12.5c-0.2-0.1-0.3-0.2-0.4-0.3c-0.1-0.1-0.2-0.3-0.2-0.6l-0.3-4.8c0-0.2,0-0.4,0.1-0.5c0.1-0.1,0.2-0.2,0.3-0.3
			c0.1,0,0.3,0,0.5,0c0.2,0.1,0.3,0.1,0.4,0.2s0.1,0.3,0.1,0.5l0.2,4.2l-0.3-0.1l2.7-3.5c0.1-0.1,0.2-0.2,0.4-0.3s0.3,0,0.4,0
			c0.2,0.1,0.3,0.1,0.4,0.2c0.1,0.1,0.1,0.3,0.1,0.4l0.2,4.3l-0.2-0.1l2.6-3.4c0.1-0.2,0.3-0.3,0.4-0.3c0.1,0,0.3,0,0.4,0
			c0.2,0.1,0.3,0.1,0.4,0.3s0.1,0.3,0.1,0.4c0,0.1-0.1,0.3-0.2,0.4l-3,3.7c-0.1,0.2-0.3,0.3-0.5,0.3c-0.2,0.1-0.4,0.1-0.5,0
			c-0.2-0.1-0.3-0.2-0.5-0.3c-0.1-0.1-0.2-0.3-0.2-0.5l-0.3-4.4l0.7,0.2l-2.7,3.5c-0.1,0.2-0.3,0.3-0.5,0.4
			C89.8,12.6,89.6,12.6,89.4,12.5z"/>
		<path d="M99.2,18.5c-0.2-0.1-0.3-0.3-0.4-0.4c-0.1-0.2,0-0.4,0.1-0.6l3.2-5.9c0.1-0.2,0.3-0.4,0.4-0.4s0.4,0,0.6,0.1
			c0.2,0.1,0.3,0.3,0.4,0.4c0.1,0.2,0,0.4-0.1,0.6l-0.4,0.8l0.1-0.4c0.3-0.3,0.7-0.5,1.1-0.5s0.9,0.1,1.3,0.3c0.5,0.2,0.8,0.6,1,1
			c0.2,0.4,0.3,0.9,0.3,1.4c0,0.5-0.2,1-0.5,1.6c-0.3,0.6-0.6,1-1.1,1.3c-0.4,0.3-0.8,0.5-1.3,0.5c-0.5,0-0.9-0.1-1.4-0.3
			c-0.4-0.2-0.8-0.5-1-0.9c-0.2-0.4-0.3-0.8-0.2-1.2l0.1,0.1l-1.3,2.4c-0.1,0.2-0.3,0.4-0.4,0.4S99.4,18.7,99.2,18.5z M102.7,16.7
			c0.3,0.1,0.5,0.2,0.8,0.2c0.3,0,0.5-0.1,0.8-0.3c0.2-0.2,0.5-0.5,0.7-0.8c0.3-0.6,0.4-1.1,0.3-1.5c-0.1-0.4-0.3-0.7-0.7-0.9
			c-0.3-0.1-0.5-0.2-0.8-0.2s-0.5,0.1-0.8,0.3c-0.2,0.2-0.5,0.5-0.7,0.9c-0.3,0.6-0.4,1-0.3,1.5C102,16.2,102.3,16.5,102.7,16.7z"/>
		<path d="M107.3,20.8c-0.6-0.4-0.9-0.8-0.9-1.3s0.1-1.1,0.5-1.7l3.1-4.8c0.1-0.2,0.3-0.3,0.5-0.4c0.2,0,0.4,0,0.6,0.1
			s0.3,0.3,0.4,0.5s0,0.4-0.1,0.6l-3,4.7c-0.2,0.3-0.3,0.6-0.2,0.8c0,0.2,0.2,0.4,0.4,0.6c0.1,0,0.1,0.1,0.2,0.1
			c0,0,0.1,0.1,0.2,0.1c0.1,0,0.2,0.1,0.1,0.2c0,0.1-0.1,0.2-0.2,0.4c-0.1,0.2-0.2,0.3-0.4,0.3c-0.1,0.1-0.3,0-0.4,0
			c-0.1,0-0.1-0.1-0.2-0.1S107.4,20.9,107.3,20.8z"/>
		<path d="M110.3,22.9c-0.3-0.3-0.6-0.6-0.7-0.9c-0.2-0.3-0.2-0.7-0.2-1c0-0.3,0.1-0.6,0.4-0.9c0.3-0.3,0.6-0.5,0.9-0.6
			c0.3-0.1,0.7,0,1.2,0.2c0.5,0.2,1,0.6,1.7,1.1l0.5,0.4l-0.5,0.7l-0.5-0.4c-0.4-0.3-0.7-0.5-1-0.7c-0.3-0.1-0.5-0.2-0.6-0.2
			c-0.2,0-0.3,0.1-0.4,0.3c-0.2,0.2-0.2,0.4-0.2,0.7c0,0.2,0.2,0.5,0.5,0.7c0.2,0.2,0.4,0.3,0.7,0.3c0.2,0,0.5,0,0.7-0.1
			c0.2-0.1,0.4-0.3,0.6-0.5l0.8-1.1c0.2-0.3,0.3-0.6,0.3-0.8c0-0.2-0.2-0.5-0.5-0.8c-0.2-0.1-0.4-0.3-0.6-0.4
			c-0.2-0.1-0.5-0.2-0.8-0.3c-0.2,0-0.3-0.1-0.4-0.2c-0.1-0.1-0.1-0.2-0.1-0.3c0-0.1,0.1-0.2,0.1-0.3s0.2-0.2,0.3-0.2
			c0.1-0.1,0.3-0.1,0.4,0c0.4,0.1,0.7,0.2,1,0.4c0.3,0.2,0.6,0.3,0.8,0.5c0.5,0.4,0.8,0.7,1,1.1s0.2,0.7,0.2,1.1s-0.3,0.8-0.6,1.3
			l-1.8,2.3c-0.2,0.2-0.3,0.3-0.5,0.3c-0.2,0-0.4,0-0.5-0.2c-0.2-0.1-0.3-0.3-0.3-0.5s0-0.4,0.2-0.6l0.4-0.5l0.1,0.1
			c-0.2,0.2-0.5,0.3-0.7,0.4c-0.3,0.1-0.5,0.1-0.8,0S110.5,23.1,110.3,22.9z"/>
		<path d="M113.3,28.2c-0.1-0.1-0.2-0.3-0.2-0.4c0-0.1,0-0.3,0.1-0.4c0.1-0.1,0.2-0.2,0.4-0.3l1.8-0.8l-0.4,0.5l1.9-5.2
			c0.1-0.2,0.2-0.3,0.3-0.4c0.1-0.1,0.3-0.1,0.4-0.1s0.3,0.1,0.5,0.2c0.1,0.1,0.2,0.3,0.2,0.4c0,0.1,0,0.3-0.1,0.6l-1.6,4.1
			l-0.3-0.2l4-1.8c0.2-0.1,0.4-0.1,0.5-0.1c0.1,0,0.3,0.1,0.4,0.2c0.1,0.1,0.2,0.2,0.2,0.4c0,0.1,0,0.3-0.1,0.4
			c-0.1,0.1-0.2,0.2-0.4,0.3l-6.7,2.9c-0.2,0.1-0.4,0.1-0.6,0.1C113.6,28.4,113.5,28.4,113.3,28.2z"/>
		<path d="M118.7,30.5c-0.2-0.2-0.2-0.4-0.2-0.6c0-0.2,0.1-0.4,0.3-0.5l3.2-3c0.2-0.2,0.4-0.3,0.6-0.3s0.4,0.1,0.5,0.3
			c0.2,0.2,0.2,0.4,0.2,0.6s-0.1,0.4-0.3,0.6l-3.2,3c-0.2,0.2-0.4,0.3-0.6,0.3S118.8,30.7,118.7,30.5z M123.9,25.6
			c-0.2-0.2-0.3-0.4-0.3-0.6c0-0.2,0.1-0.4,0.3-0.6c0.2-0.2,0.4-0.2,0.6-0.2c0.2,0,0.4,0.1,0.6,0.3c0.2,0.2,0.3,0.4,0.3,0.6
			c0,0.2-0.1,0.4-0.3,0.6c-0.2,0.2-0.4,0.2-0.6,0.2S124.1,25.8,123.9,25.6z"/>
		<path d="M120.6,32.6c-0.1-0.2-0.2-0.4-0.2-0.6s0.1-0.3,0.3-0.5l3.6-2.8c0.2-0.2,0.4-0.2,0.6-0.2s0.3,0.1,0.5,0.3
			c0.1,0.2,0.2,0.4,0.2,0.5c0,0.2-0.1,0.3-0.3,0.5l-0.6,0.5l0.2-0.3c0.4-0.1,0.9-0.1,1.3,0c0.4,0.2,0.8,0.4,1,0.8
			c0.3,0.4,0.5,0.7,0.5,1.1c0,0.3,0,0.7-0.2,1c-0.2,0.3-0.5,0.7-0.9,1l-2.3,1.8c-0.2,0.2-0.4,0.2-0.6,0.2c-0.2,0-0.3-0.1-0.5-0.3
			c-0.1-0.2-0.2-0.4-0.2-0.6c0-0.2,0.1-0.4,0.3-0.5l2.2-1.7c0.4-0.3,0.6-0.6,0.6-0.8c0.1-0.3,0-0.5-0.2-0.8c-0.3-0.3-0.6-0.5-1-0.6
			c-0.4,0-0.7,0.1-1.1,0.4l-2.1,1.6C121.2,33.1,120.9,33,120.6,32.6z"/>
		<path d="M123.8,40.9c-0.2-0.4-0.4-0.7-0.6-1.1c-0.1-0.4-0.2-0.8-0.3-1.1c0-0.2,0-0.3,0.1-0.4c0.1-0.1,0.2-0.2,0.3-0.2
			c0.1,0,0.2-0.1,0.3,0c0.1,0,0.2,0.1,0.3,0.1c0.1,0.1,0.1,0.2,0.1,0.3c0,0.4,0.1,0.7,0.2,1c0.1,0.3,0.2,0.5,0.4,0.7
			c0.3,0.5,0.6,0.7,1,0.8c0.4,0.1,0.8,0,1.2-0.3l0.9-0.6l0.1,0.1c-0.4,0.1-0.8,0.1-1.2-0.1c-0.4-0.2-0.7-0.5-1-0.9
			c-0.3-0.4-0.4-0.9-0.4-1.4c0-0.5,0.1-0.9,0.4-1.3c0.3-0.4,0.6-0.8,1.1-1.1c0.4-0.2,0.7-0.4,1.1-0.5c0.4-0.1,0.7-0.1,1.1,0
			c0.3,0.1,0.7,0.2,0.9,0.4c0.3,0.2,0.5,0.5,0.7,0.8c0.3,0.4,0.4,0.9,0.4,1.3c0,0.4-0.2,0.8-0.4,1.1l-0.3,0.1l0.7-0.4
			c0.2-0.1,0.4-0.2,0.6-0.1c0.2,0,0.3,0.2,0.5,0.4c0.1,0.2,0.2,0.4,0.1,0.6c0,0.2-0.2,0.3-0.4,0.5l-3.9,2.4
			c-0.8,0.5-1.5,0.7-2.2,0.5S124.4,41.7,123.8,40.9z M126.9,39c0.2,0.3,0.4,0.5,0.6,0.6c0.2,0.1,0.5,0.2,0.8,0.1s0.6-0.2,0.9-0.3
			c0.5-0.3,0.8-0.6,0.9-1c0.1-0.4,0.1-0.8-0.2-1.2c-0.2-0.3-0.4-0.5-0.6-0.6s-0.5-0.2-0.8-0.1c-0.3,0-0.6,0.1-0.9,0.3
			c-0.5,0.3-0.8,0.6-0.9,1S126.6,38.6,126.9,39z"/>
		<path d="M131.3,48c-0.2-0.4-0.2-0.7-0.2-1.1c0-0.4,0.2-0.7,0.4-1c0.2-0.3,0.5-0.5,0.9-0.7c0.3-0.1,0.7-0.2,1.1-0.1
			c0.4,0,0.7,0.2,1,0.4c0.3,0.2,0.6,0.5,0.7,0.9c0.1,0.4,0.2,0.7,0.2,1.1s-0.2,0.7-0.4,1c-0.2,0.3-0.5,0.5-0.9,0.7
			c-0.4,0.2-0.7,0.2-1.1,0.1c-0.4-0.1-0.7-0.2-1-0.4S131.4,48.4,131.3,48z"/>
		<path d="M132.8,55.6c-0.1-0.2,0-0.4,0.1-0.6s0.3-0.3,0.5-0.3l4.4-1.1c0.2-0.1,0.4,0,0.6,0c0.2,0.1,0.3,0.3,0.3,0.5
			c0.1,0.2,0,0.4-0.1,0.6c-0.1,0.2-0.3,0.3-0.5,0.3l-0.8,0.2l0.3-0.2c0.5,0.1,0.8,0.3,1.1,0.6c0.3,0.3,0.5,0.7,0.6,1.1
			c0.1,0.5,0.1,0.9,0,1.2c-0.1,0.3-0.3,0.6-0.6,0.9c-0.3,0.2-0.7,0.4-1.3,0.5l-2.8,0.7c-0.2,0.1-0.4,0-0.6,0
			c-0.2-0.1-0.3-0.3-0.3-0.5c-0.1-0.2,0-0.4,0.1-0.6c0.1-0.2,0.3-0.3,0.5-0.3l2.7-0.7c0.4-0.1,0.7-0.3,0.9-0.5s0.2-0.5,0.1-0.9
			c-0.1-0.4-0.3-0.7-0.7-0.9c-0.3-0.2-0.7-0.2-1.2-0.1l-2.5,0.6C133.2,56.3,132.9,56.1,132.8,55.6z"/>
		<path d="M134.5,64.1c-0.1-0.6,0-1.1,0.2-1.6c0.2-0.5,0.5-0.9,0.9-1.2c0.4-0.3,0.9-0.5,1.6-0.6c0.5-0.1,0.9-0.1,1.3,0
			c0.4,0.1,0.7,0.2,1,0.5s0.5,0.5,0.7,0.9c0.2,0.3,0.3,0.7,0.4,1.2c0.1,0.6,0,1.1-0.2,1.6c-0.2,0.5-0.5,0.9-0.9,1.2
			c-0.4,0.3-0.9,0.5-1.6,0.6c-0.5,0.1-0.9,0.1-1.3,0c-0.4-0.1-0.7-0.2-1-0.5s-0.5-0.5-0.7-0.9C134.7,65,134.6,64.6,134.5,64.1z
			 M135.6,64c0,0.3,0.1,0.5,0.3,0.7c0.2,0.2,0.4,0.3,0.7,0.4c0.3,0.1,0.7,0.1,1.1,0c0.6-0.1,1.1-0.3,1.4-0.6
			c0.3-0.3,0.4-0.7,0.3-1.1c0-0.3-0.1-0.5-0.3-0.7s-0.4-0.3-0.7-0.4c-0.3-0.1-0.7-0.1-1.1,0c-0.6,0.1-1.1,0.3-1.4,0.6
			C135.7,63.2,135.6,63.5,135.6,64z"/>
		<path d="M135.1,70.3c0-0.2,0-0.4,0.1-0.5s0.3-0.3,0.5-0.4l4.4-1.8c0.2-0.1,0.4-0.1,0.5-0.1c0.1,0,0.3,0.1,0.4,0.2s0.1,0.3,0.1,0.5
			c0,0.2,0,0.3-0.1,0.4c-0.1,0.1-0.2,0.2-0.5,0.3l-4,1.5l0-0.3l4.1,1.4c0.2,0.1,0.3,0.1,0.4,0.3c0.1,0.1,0.1,0.2,0.1,0.4
			s0,0.3-0.1,0.4s-0.2,0.2-0.4,0.3l-4.1,1.5l0-0.3l4.1,1.4c0.2,0.1,0.4,0.2,0.4,0.3c0.1,0.1,0.1,0.3,0.1,0.4c0,0.2,0,0.3-0.1,0.4
			c-0.1,0.1-0.2,0.2-0.4,0.2c-0.1,0-0.3,0-0.5-0.1l-4.5-1.7c-0.2-0.1-0.4-0.2-0.5-0.3c-0.1-0.1-0.2-0.3-0.2-0.5c0-0.2,0-0.4,0.1-0.5
			c0.1-0.2,0.3-0.3,0.5-0.3l4.1-1.6l0,0.7l-4.2-1.5c-0.2-0.1-0.4-0.2-0.5-0.3C135.1,70.7,135.1,70.5,135.1,70.3z"/>
		<path d="M132.4,81.5c0-0.2,0.1-0.4,0.3-0.5c0.1-0.1,0.3-0.1,0.6-0.1l6.6,1.2c0.2,0,0.4,0.1,0.5,0.3c0.1,0.1,0.1,0.3,0.1,0.6
			c0,0.2-0.1,0.4-0.3,0.5c-0.1,0.1-0.3,0.1-0.6,0.1l-0.9-0.2l0.4-0.1c0.4,0.2,0.7,0.5,0.8,0.9c0.2,0.4,0.2,0.9,0.1,1.3
			c-0.1,0.5-0.3,0.9-0.6,1.3c-0.3,0.3-0.7,0.6-1.2,0.7c-0.5,0.1-1,0.1-1.7,0c-0.6-0.1-1.1-0.3-1.5-0.6c-0.4-0.3-0.7-0.7-0.9-1.1
			c-0.2-0.4-0.2-0.9-0.1-1.4c0.1-0.5,0.3-0.9,0.6-1.2c0.3-0.3,0.7-0.5,1.1-0.6l0,0.1l-2.7-0.5c-0.2,0-0.4-0.1-0.5-0.3
			C132.3,81.9,132.3,81.7,132.4,81.5z M135.2,84.3c-0.1,0.3,0,0.6,0.1,0.8s0.3,0.5,0.5,0.6c0.3,0.2,0.6,0.3,1,0.4
			c0.6,0.1,1.1,0.1,1.5-0.1s0.6-0.5,0.7-1c0.1-0.3,0-0.6-0.1-0.8s-0.3-0.5-0.5-0.6c-0.3-0.2-0.6-0.3-1-0.4c-0.6-0.1-1.1-0.1-1.5,0.1
			C135.5,83.5,135.3,83.8,135.2,84.3z"/>
		<path d="M132.7,90c0.2-0.6,0.5-1.1,0.9-1.3c0.5-0.2,1-0.2,1.7,0l5.5,1.5c0.2,0.1,0.4,0.2,0.5,0.3c0.1,0.2,0.1,0.4,0,0.6
			c-0.1,0.2-0.2,0.4-0.3,0.5s-0.4,0.1-0.6,0l-5.4-1.5c-0.4-0.1-0.6-0.1-0.8,0s-0.4,0.3-0.4,0.6c0,0.1,0,0.1,0,0.2c0,0.1,0,0.1,0,0.2
			c0,0.1-0.1,0.2-0.1,0.2c-0.1,0-0.2,0-0.5-0.1c-0.2-0.1-0.3-0.1-0.4-0.2c-0.1-0.1-0.1-0.3-0.1-0.4c0-0.1,0-0.2,0-0.2
			C132.6,90.1,132.7,90.1,132.7,90z"/>
		<path d="M131.6,93.4c0.1-0.4,0.3-0.7,0.6-1c0.3-0.3,0.6-0.4,0.9-0.5s0.7-0.1,1,0.1c0.4,0.1,0.7,0.4,0.9,0.7
			c0.2,0.3,0.2,0.7,0.1,1.2c-0.1,0.5-0.2,1.2-0.5,2l-0.2,0.6l-0.8-0.3l0.2-0.6c0.2-0.5,0.3-0.8,0.3-1.1s0-0.5,0-0.7
			c-0.1-0.2-0.2-0.3-0.4-0.3c-0.2-0.1-0.5-0.1-0.7,0c-0.2,0.1-0.4,0.3-0.5,0.6c-0.1,0.2-0.1,0.5-0.1,0.7c0,0.2,0.2,0.4,0.3,0.6
			c0.2,0.2,0.4,0.3,0.6,0.4l1.3,0.5c0.4,0.1,0.7,0.2,0.9,0c0.2-0.1,0.4-0.4,0.5-0.7c0.1-0.2,0.1-0.5,0.2-0.7s0-0.6,0-0.9
			c0-0.2,0-0.3,0.1-0.4s0.2-0.2,0.3-0.2c0.1,0,0.2,0,0.3,0c0.1,0,0.2,0.1,0.3,0.2c0.1,0.1,0.1,0.2,0.1,0.4c0,0.4,0,0.8-0.1,1.1
			c-0.1,0.3-0.1,0.6-0.2,0.9c-0.2,0.5-0.4,1-0.7,1.2s-0.6,0.5-1,0.5c-0.4,0.1-0.9,0-1.4-0.2l-2.7-1c-0.2-0.1-0.4-0.2-0.5-0.4
			c-0.1-0.2-0.1-0.3,0-0.6s0.2-0.4,0.4-0.4c0.2-0.1,0.4-0.1,0.6,0l0.5,0.2l0,0.1c-0.2-0.1-0.4-0.3-0.6-0.6c-0.1-0.2-0.2-0.5-0.2-0.7
			C131.4,94,131.5,93.7,131.6,93.4z"/>
		<path d="M127.4,97.9c0.1-0.2,0.2-0.3,0.3-0.3c0.1-0.1,0.3-0.1,0.4,0s0.3,0.1,0.4,0.3l1.3,1.5l-0.6-0.3l5.5,0.2
			c0.2,0,0.3,0.1,0.5,0.1c0.1,0.1,0.2,0.2,0.2,0.4s0,0.3-0.1,0.5c-0.1,0.2-0.2,0.3-0.3,0.3c-0.1,0.1-0.3,0.1-0.6,0.1l-4.3-0.3
			l0.2-0.3l2.9,3.2c0.2,0.2,0.3,0.3,0.3,0.5c0,0.1,0,0.3-0.1,0.5c-0.1,0.2-0.2,0.3-0.3,0.3c-0.1,0.1-0.3,0.1-0.4,0
			c-0.1,0-0.3-0.1-0.4-0.3l-4.7-5.5c-0.2-0.2-0.2-0.4-0.3-0.5C127.3,98.3,127.4,98.1,127.4,97.9z"/>
		<path d="M126.9,103.7c0.1-0.2,0.3-0.3,0.5-0.4c0.2,0,0.4,0,0.6,0.1l3.8,2.2c0.2,0.1,0.4,0.3,0.4,0.5s0,0.4-0.1,0.6
			c-0.1,0.2-0.3,0.3-0.5,0.4c-0.2,0-0.4,0-0.6-0.1l-3.8-2.2c-0.2-0.1-0.4-0.3-0.4-0.5S126.8,103.9,126.9,103.7z M133.1,107.2
			c0.1-0.2,0.3-0.4,0.5-0.5c0.2-0.1,0.4,0,0.6,0.1c0.2,0.1,0.4,0.3,0.4,0.5c0,0.2,0,0.4-0.1,0.7c-0.1,0.2-0.3,0.4-0.5,0.5
			c-0.2,0.1-0.4,0-0.6-0.1c-0.2-0.1-0.3-0.3-0.4-0.5C132.9,107.7,133,107.5,133.1,107.2z"/>
		<path d="M125.4,106.2c0.1-0.2,0.3-0.3,0.5-0.3c0.2,0,0.4,0,0.6,0.2l3.7,2.6c0.2,0.1,0.3,0.3,0.4,0.5c0,0.2,0,0.4-0.1,0.6
			c-0.1,0.2-0.3,0.3-0.5,0.3c-0.2,0-0.4,0-0.6-0.2l-0.7-0.5l0.3,0.1c0.3,0.4,0.4,0.8,0.3,1.2c0,0.4-0.2,0.8-0.4,1.2
			c-0.3,0.4-0.6,0.7-0.9,0.8c-0.3,0.2-0.7,0.2-1,0.1c-0.4-0.1-0.8-0.3-1.2-0.6l-2.4-1.6c-0.2-0.1-0.3-0.3-0.4-0.5
			c0-0.2,0-0.4,0.1-0.6c0.1-0.2,0.3-0.3,0.5-0.4c0.2,0,0.4,0,0.6,0.2l2.3,1.6c0.4,0.3,0.7,0.4,1,0.3c0.3,0,0.5-0.2,0.7-0.5
			c0.2-0.4,0.3-0.7,0.2-1.1s-0.3-0.7-0.7-0.9l-2.2-1.5C125.2,106.9,125.2,106.6,125.4,106.2z"/>
		<path d="M118.5,111.8c0.3-0.3,0.6-0.6,0.9-0.9c0.3-0.3,0.7-0.5,1-0.6c0.2-0.1,0.3-0.1,0.4,0s0.2,0.1,0.3,0.2
			c0.1,0.1,0.1,0.2,0.1,0.3c0,0.1,0,0.2,0,0.3c0,0.1-0.1,0.2-0.3,0.2c-0.4,0.2-0.7,0.3-0.9,0.5c-0.2,0.2-0.4,0.4-0.6,0.6
			c-0.3,0.4-0.5,0.8-0.5,1.2c0,0.4,0.2,0.7,0.6,1.1l0.8,0.7l-0.1,0.1c-0.2-0.4-0.3-0.8-0.3-1.2s0.2-0.9,0.6-1.2
			c0.3-0.4,0.7-0.7,1.2-0.8c0.4-0.1,0.9-0.1,1.4,0s0.9,0.4,1.4,0.8c0.3,0.3,0.6,0.6,0.8,0.9c0.2,0.3,0.3,0.7,0.4,1
			c0,0.3,0,0.7-0.1,1c-0.1,0.3-0.3,0.7-0.5,1c-0.3,0.4-0.7,0.6-1.1,0.8c-0.4,0.1-0.8,0.1-1.2-0.1l-0.2-0.3l0.6,0.6
			c0.2,0.2,0.3,0.3,0.3,0.5c0,0.2-0.1,0.4-0.2,0.5c-0.2,0.2-0.3,0.3-0.5,0.3c-0.2,0-0.4-0.1-0.6-0.2l-3.5-3c-0.7-0.6-1.1-1.3-1.1-2
			C117.6,113.2,117.9,112.5,118.5,111.8z M121.3,114.1c-0.2,0.2-0.3,0.5-0.4,0.8s0,0.5,0.1,0.8c0.1,0.3,0.3,0.5,0.6,0.8
			c0.4,0.4,0.8,0.5,1.3,0.5s0.8-0.2,1.1-0.5c0.2-0.2,0.3-0.5,0.4-0.8c0-0.3,0-0.5-0.1-0.8c-0.1-0.3-0.3-0.5-0.6-0.8
			c-0.4-0.4-0.8-0.5-1.3-0.5C121.9,113.6,121.6,113.7,121.3,114.1z"/>
		<path d="M114,121c0.3-0.3,0.6-0.4,1-0.5c0.4-0.1,0.7,0,1.1,0.1c0.4,0.1,0.7,0.3,0.9,0.6c0.2,0.3,0.4,0.6,0.5,1
			c0.1,0.4,0,0.7-0.1,1.1s-0.3,0.7-0.6,1c-0.3,0.2-0.6,0.4-1,0.5s-0.7,0.1-1.1-0.1c-0.4-0.1-0.7-0.3-0.9-0.6c-0.3-0.3-0.4-0.6-0.5-1
			c-0.1-0.4,0-0.7,0.1-1.1S113.7,121.3,114,121z"/>
		<path d="M107.2,124.8c0.2-0.1,0.4-0.2,0.6-0.1c0.2,0,0.3,0.2,0.5,0.4l2.4,3.9c0.1,0.2,0.2,0.4,0.1,0.6c0,0.2-0.2,0.3-0.4,0.4
			s-0.4,0.2-0.6,0.1c-0.2,0-0.3-0.2-0.5-0.4l-0.4-0.7l0.3,0.2c0.1,0.5,0,0.9-0.2,1.3s-0.5,0.7-0.9,0.9c-0.4,0.2-0.8,0.4-1.1,0.4
			c-0.4,0-0.7-0.1-1-0.3c-0.3-0.2-0.6-0.6-0.9-1l-1.5-2.5c-0.1-0.2-0.2-0.4-0.1-0.6c0-0.2,0.2-0.3,0.4-0.5c0.2-0.1,0.4-0.2,0.6-0.1
			s0.3,0.2,0.5,0.4l1.5,2.4c0.2,0.4,0.5,0.6,0.7,0.7c0.3,0.1,0.5,0,0.8-0.2c0.4-0.2,0.6-0.5,0.7-0.9c0.1-0.4,0-0.8-0.2-1.1l-1.4-2.2
			C106.7,125.4,106.8,125,107.2,124.8z"/>
		<path d="M99.6,129c0.5-0.3,1.1-0.4,1.6-0.3c0.5,0,1,0.2,1.4,0.5c0.4,0.3,0.8,0.7,1,1.3c0.2,0.4,0.3,0.8,0.4,1.2
			c0,0.4,0,0.8-0.1,1.1c-0.1,0.4-0.3,0.7-0.6,1s-0.6,0.5-1,0.7c-0.5,0.3-1.1,0.4-1.6,0.3c-0.5,0-1-0.2-1.4-0.5
			c-0.4-0.3-0.8-0.7-1-1.3c-0.2-0.4-0.3-0.8-0.4-1.2c0-0.4,0-0.8,0.1-1.1c0.1-0.4,0.3-0.7,0.6-1S99.2,129.2,99.6,129z M100.1,130
			c-0.3,0.1-0.5,0.3-0.6,0.5s-0.2,0.5-0.2,0.8s0.1,0.7,0.3,1c0.3,0.6,0.6,0.9,1,1.1s0.8,0.2,1.2,0c0.3-0.1,0.5-0.3,0.6-0.5
			s0.2-0.5,0.2-0.8s-0.1-0.7-0.3-1c-0.3-0.6-0.6-0.9-1-1.1C100.9,129.8,100.5,129.9,100.1,130z"/>
		<path d="M93.9,131.5c0.2-0.1,0.4-0.1,0.5,0c0.2,0.1,0.3,0.2,0.5,0.3l3,3.7c0.1,0.2,0.2,0.3,0.2,0.5c0,0.1,0,0.3-0.1,0.4
			c-0.1,0.1-0.2,0.2-0.4,0.3c-0.2,0.1-0.3,0.1-0.4,0c-0.1,0-0.3-0.2-0.4-0.4l-2.6-3.4l0.3-0.1l-0.2,4.4c0,0.2,0,0.3-0.1,0.4
			c-0.1,0.1-0.2,0.2-0.4,0.2c-0.2,0.1-0.3,0.1-0.4,0c-0.1,0-0.3-0.1-0.4-0.3l-2.7-3.4l0.2-0.1l-0.2,4.3c0,0.2-0.1,0.4-0.2,0.5
			c-0.1,0.1-0.2,0.2-0.4,0.2c-0.2,0.1-0.3,0.1-0.5,0c-0.1-0.1-0.2-0.2-0.3-0.3c-0.1-0.1-0.1-0.3-0.1-0.5l0.3-4.8
			c0-0.2,0.1-0.4,0.2-0.6c0.1-0.1,0.3-0.2,0.4-0.3c0.2-0.1,0.4-0.1,0.5,0c0.2,0.1,0.3,0.2,0.5,0.3l2.8,3.5l-0.7,0.2l0.2-4.4
			c0-0.2,0.1-0.4,0.2-0.6C93.6,131.6,93.7,131.5,93.9,131.5z"/>
		<path d="M82.4,132.2c0.2,0,0.4,0,0.6,0.1c0.1,0.1,0.2,0.3,0.3,0.5l0.8,6.7c0,0.2,0,0.4-0.1,0.6c-0.1,0.1-0.3,0.2-0.5,0.3
			c-0.2,0-0.4,0-0.6-0.1c-0.1-0.1-0.2-0.3-0.3-0.5l-0.1-0.9l0.2,0.3c-0.1,0.4-0.3,0.8-0.6,1.1s-0.8,0.5-1.2,0.5
			c-0.5,0.1-1,0-1.4-0.2s-0.8-0.5-1-0.9s-0.4-0.9-0.5-1.6c-0.1-0.6,0-1.2,0.1-1.7c0.2-0.5,0.4-0.9,0.8-1.2c0.3-0.3,0.8-0.5,1.3-0.5
			c0.5-0.1,0.9,0,1.3,0.2c0.4,0.2,0.7,0.5,0.9,0.9l-0.1,0l-0.3-2.7c0-0.2,0-0.4,0.1-0.6C82,132.3,82.2,132.3,82.4,132.2z
			 M80.7,135.8c-0.3,0-0.5,0.1-0.7,0.3s-0.3,0.4-0.4,0.7c-0.1,0.3-0.1,0.7-0.1,1.1c0.1,0.6,0.3,1.1,0.6,1.4c0.3,0.3,0.7,0.4,1.1,0.3
			c0.3,0,0.5-0.1,0.7-0.3s0.4-0.4,0.4-0.7c0.1-0.3,0.1-0.7,0.1-1.1c-0.1-0.6-0.3-1.1-0.6-1.4C81.5,135.8,81.1,135.7,80.7,135.8z"/>
		<path d="M74.5,135.1c0.7,0,1.2,0.1,1.5,0.5c0.4,0.4,0.5,0.9,0.6,1.7l0.2,5.7c0,0.2,0,0.4-0.2,0.6c-0.1,0.1-0.3,0.2-0.5,0.2
			c-0.2,0-0.4,0-0.6-0.2c-0.1-0.1-0.2-0.3-0.2-0.6l-0.2-5.6c0-0.4-0.1-0.6-0.3-0.8c-0.2-0.2-0.4-0.2-0.7-0.2c-0.1,0-0.1,0-0.2,0
			c-0.1,0-0.1,0-0.2,0c-0.1,0-0.2,0-0.2-0.1s-0.1-0.2-0.1-0.5c0-0.2,0-0.4,0.1-0.5c0.1-0.1,0.2-0.2,0.4-0.2c0.1,0,0.2,0,0.3,0
			S74.4,135.1,74.5,135.1z"/>
		<path d="M70.9,135.1c0.4,0,0.8,0.1,1.1,0.3c0.3,0.2,0.6,0.4,0.8,0.7c0.2,0.3,0.3,0.6,0.2,1c0,0.4-0.1,0.8-0.4,1
			c-0.2,0.2-0.6,0.4-1.1,0.5c-0.5,0.1-1.2,0.1-2,0.1l-0.6,0l0-0.9l0.6,0c0.5,0,0.9,0,1.2,0c0.3,0,0.5-0.1,0.6-0.2
			c0.1-0.1,0.2-0.3,0.2-0.5c0-0.3-0.1-0.5-0.3-0.7c-0.2-0.2-0.4-0.3-0.8-0.3c-0.3,0-0.5,0-0.7,0.2s-0.4,0.3-0.5,0.5
			c-0.1,0.2-0.2,0.5-0.2,0.7l-0.1,1.4c0,0.4,0.1,0.7,0.2,0.9s0.5,0.3,0.9,0.3c0.2,0,0.5,0,0.8-0.1c0.3,0,0.6-0.1,0.9-0.3
			c0.2-0.1,0.3-0.1,0.4,0s0.2,0.1,0.3,0.2c0.1,0.1,0.1,0.2,0.1,0.3c0,0.1,0,0.2-0.1,0.3s-0.2,0.2-0.3,0.2c-0.4,0.1-0.7,0.2-1.1,0.3
			c-0.3,0.1-0.7,0.1-0.9,0.1c-0.6,0-1-0.1-1.4-0.3c-0.4-0.2-0.6-0.5-0.8-0.8s-0.2-0.8-0.2-1.4l0.1-2.9c0-0.2,0.1-0.4,0.2-0.6
			c0.1-0.1,0.3-0.2,0.5-0.2c0.2,0,0.4,0.1,0.5,0.2s0.2,0.3,0.2,0.6l0,0.6l-0.1,0c0.1-0.3,0.2-0.5,0.4-0.7c0.2-0.2,0.4-0.3,0.6-0.5
			C70.3,135.1,70.6,135.1,70.9,135.1z"/>
		<path d="M65.3,132.5c0.2,0,0.3,0.1,0.4,0.2s0.1,0.2,0.1,0.4s0,0.3-0.1,0.5l-1.1,1.7l0.1-0.6l1.5,5.3c0,0.2,0,0.3,0,0.5
			c0,0.1-0.1,0.3-0.3,0.3s-0.3,0.1-0.5,0.1c-0.2,0-0.3-0.1-0.4-0.2s-0.2-0.3-0.2-0.5l-1.1-4.2l0.4,0l-2.2,3.8
			c-0.1,0.2-0.2,0.3-0.4,0.4c-0.1,0.1-0.3,0.1-0.5,0.1c-0.2,0-0.3-0.1-0.4-0.2c-0.1-0.1-0.1-0.2-0.1-0.4c0-0.2,0-0.3,0.1-0.5
			l3.8-6.2c0.1-0.2,0.3-0.3,0.4-0.4C65,132.5,65.1,132.5,65.3,132.5z"/>
		<path d="M58.2,140.8c0.3,0.1,0.5,0.2,0.6,0.3c0.1,0.2,0.2,0.4,0.1,0.6c-0.1,0.2-0.2,0.4-0.4,0.5c-0.2,0.1-0.4,0.1-0.7,0.1
			c-0.3-0.1-0.5-0.2-0.6-0.3c-0.1-0.2-0.2-0.4-0.1-0.6c0.1-0.2,0.2-0.4,0.3-0.5C57.7,140.7,57.9,140.7,58.2,140.8z M59.7,133.8
			c0.2,0,0.4,0.2,0.5,0.3c0.1,0.2,0.1,0.4,0.1,0.6l-0.9,4.3c-0.1,0.3-0.2,0.4-0.3,0.6s-0.3,0.1-0.6,0.1c-0.2,0-0.4-0.2-0.5-0.3
			c-0.1-0.2-0.1-0.4-0.1-0.6l0.9-4.3c0.1-0.2,0.2-0.4,0.3-0.5C59.2,133.8,59.4,133.7,59.7,133.8z"/>
		<path d="M56.8,133.1c0.2,0.1,0.4,0.2,0.5,0.3c0.1,0.2,0.1,0.4,0,0.6l-1.3,4.3c-0.1,0.2-0.2,0.4-0.3,0.5c-0.2,0.1-0.4,0.1-0.6,0
			c-0.2-0.1-0.4-0.2-0.5-0.3c-0.1-0.2-0.1-0.4,0-0.6l0.2-0.8l0,0.3c-0.3,0.4-0.6,0.6-1.1,0.7c-0.4,0.1-0.9,0.1-1.3,0
			c-0.5-0.1-0.8-0.3-1-0.6c-0.2-0.3-0.4-0.6-0.4-1c0-0.4,0-0.8,0.2-1.4l0.8-2.8c0.1-0.2,0.2-0.4,0.3-0.5c0.2-0.1,0.4-0.1,0.6,0
			s0.4,0.2,0.5,0.3c0.1,0.2,0.1,0.4,0,0.6l-0.8,2.7c-0.1,0.4-0.1,0.8,0,1c0.1,0.2,0.3,0.4,0.7,0.5c0.4,0.1,0.8,0.1,1.1-0.1
			s0.6-0.5,0.7-0.9l0.7-2.5C56,133.2,56.4,133,56.8,133.1z"/>
		<path d="M49.4,128.3c0.4,0.2,0.8,0.4,1.1,0.6c0.3,0.2,0.6,0.5,0.9,0.8c0.1,0.1,0.2,0.3,0.2,0.4c0,0.1,0,0.2-0.1,0.3
			c-0.1,0.1-0.1,0.2-0.3,0.2c-0.1,0.1-0.2,0.1-0.3,0.1c-0.1,0-0.2-0.1-0.3-0.2c-0.3-0.3-0.5-0.5-0.8-0.7c-0.3-0.2-0.5-0.3-0.7-0.4
			c-0.5-0.2-0.9-0.2-1.3-0.1s-0.6,0.4-0.8,0.9l-0.4,1l-0.1,0c0.3-0.3,0.6-0.5,1.1-0.6c0.4-0.1,0.9,0,1.3,0.2
			c0.5,0.2,0.9,0.5,1.1,0.9c0.3,0.4,0.4,0.8,0.4,1.3c0,0.5-0.1,1-0.3,1.5c-0.2,0.4-0.4,0.7-0.6,1c-0.3,0.3-0.5,0.5-0.8,0.6
			c-0.3,0.1-0.6,0.2-1,0.2c-0.4,0-0.7-0.1-1.1-0.2c-0.5-0.2-0.8-0.5-1.1-0.8c-0.2-0.4-0.3-0.8-0.3-1.2l0.2-0.2l-0.3,0.8
			c-0.1,0.2-0.2,0.4-0.4,0.4s-0.4,0.1-0.6,0c-0.2-0.1-0.4-0.2-0.4-0.4c-0.1-0.2-0.1-0.4,0-0.6l1.8-4.3c0.4-0.9,0.9-1.4,1.5-1.7
			C47.7,127.8,48.5,127.9,49.4,128.3z M48,131.6c-0.3-0.1-0.6-0.2-0.8-0.1c-0.3,0-0.5,0.2-0.7,0.4c-0.2,0.2-0.4,0.5-0.5,0.8
			c-0.2,0.5-0.3,1-0.1,1.4c0.1,0.4,0.4,0.7,0.8,0.9c0.3,0.1,0.6,0.2,0.8,0.1c0.3,0,0.5-0.2,0.7-0.4c0.2-0.2,0.4-0.5,0.5-0.8
			c0.2-0.5,0.3-1,0.1-1.4C48.7,132,48.4,131.7,48,131.6z"/>
		<path d="M39.2,126.8c0.3,0.2,0.6,0.5,0.8,0.8c0.2,0.3,0.3,0.7,0.3,1.1c0,0.4-0.1,0.7-0.3,1.1c-0.2,0.3-0.5,0.6-0.8,0.7
			c-0.3,0.2-0.7,0.3-1.1,0.3c-0.4,0-0.8-0.1-1.1-0.3c-0.3-0.2-0.6-0.5-0.8-0.8s-0.3-0.7-0.3-1.1s0.1-0.7,0.3-1.1
			c0.2-0.3,0.5-0.6,0.8-0.8c0.3-0.2,0.7-0.2,1.1-0.2C38.5,126.4,38.9,126.5,39.2,126.8z"/>
		<path d="M33.6,121.4c0.2,0.2,0.3,0.3,0.3,0.5s-0.1,0.4-0.2,0.6l-3,3.4c-0.2,0.2-0.3,0.3-0.5,0.3c-0.2,0-0.4-0.1-0.5-0.2
			c-0.2-0.2-0.3-0.3-0.3-0.5c0-0.2,0.1-0.4,0.2-0.6l0.5-0.6l-0.1,0.3c-0.4,0.2-0.8,0.3-1.3,0.2s-0.8-0.3-1.2-0.6
			c-0.4-0.3-0.6-0.6-0.7-1c-0.1-0.3-0.1-0.7,0-1.1c0.1-0.4,0.4-0.8,0.7-1.2l1.9-2.2c0.2-0.2,0.3-0.3,0.5-0.3s0.4,0.1,0.5,0.2
			s0.3,0.3,0.3,0.5c0,0.2-0.1,0.4-0.2,0.6l-1.8,2.2c-0.3,0.3-0.4,0.7-0.5,0.9c0,0.3,0.1,0.5,0.4,0.8c0.3,0.3,0.7,0.4,1.1,0.4
			s0.7-0.2,1-0.6l1.7-2C32.9,121.1,33.2,121.1,33.6,121.4z"/>
		<path d="M27.3,115.5c0.4,0.4,0.7,0.9,0.8,1.4c0.1,0.5,0.1,1-0.1,1.5c-0.2,0.5-0.5,1-0.9,1.4c-0.3,0.3-0.7,0.6-1.1,0.7
			c-0.4,0.2-0.7,0.2-1.1,0.2s-0.7-0.1-1.1-0.3s-0.7-0.4-1-0.8c-0.4-0.4-0.7-0.9-0.8-1.4c-0.1-0.5-0.1-1,0.1-1.5
			c0.2-0.5,0.5-1,0.9-1.4c0.3-0.3,0.7-0.6,1.1-0.7c0.4-0.2,0.7-0.2,1.1-0.2c0.4,0,0.7,0.1,1.1,0.3C26.6,114.9,27,115.1,27.3,115.5z
			 M26.4,116.2c-0.2-0.2-0.4-0.4-0.7-0.4s-0.5,0-0.8,0.1c-0.3,0.1-0.6,0.3-0.9,0.6c-0.5,0.4-0.7,0.9-0.8,1.3c0,0.4,0.1,0.8,0.4,1.1
			c0.2,0.2,0.4,0.4,0.7,0.4c0.3,0.1,0.5,0,0.8-0.1c0.3-0.1,0.6-0.3,0.9-0.6c0.5-0.4,0.7-0.9,0.8-1.3
			C26.9,116.9,26.7,116.6,26.4,116.2z"/>
		<path d="M23.2,110.7c0.1,0.2,0.2,0.3,0.2,0.5c0,0.2-0.1,0.4-0.2,0.6l-2.6,4c-0.1,0.2-0.2,0.3-0.4,0.4s-0.3,0.1-0.4,0
			c-0.1,0-0.3-0.2-0.4-0.3c-0.1-0.1-0.2-0.3-0.1-0.4c0-0.1,0.1-0.3,0.2-0.5l2.4-3.5l0.2,0.2l-4.2,1.2c-0.2,0.1-0.3,0.1-0.5,0
			s-0.2-0.1-0.3-0.3c-0.1-0.1-0.2-0.3-0.1-0.4c0-0.1,0.1-0.3,0.2-0.4l2.5-3.6l0.1,0.2l-4.1,1.2c-0.2,0.1-0.4,0.1-0.5,0
			c-0.1-0.1-0.2-0.1-0.3-0.3c-0.1-0.2-0.2-0.3-0.1-0.4c0-0.1,0.1-0.3,0.2-0.4c0.1-0.1,0.3-0.2,0.4-0.2l4.6-1.2
			c0.2-0.1,0.4-0.1,0.6,0c0.2,0.1,0.3,0.2,0.4,0.3c0.1,0.2,0.2,0.3,0.2,0.5c0,0.2-0.1,0.4-0.2,0.6l-2.5,3.7l-0.4-0.6l4.3-1.2
			c0.2-0.1,0.4-0.1,0.6,0C22.9,110.5,23.1,110.6,23.2,110.7z"/>
		<path d="M19,100.1c0.1,0.2,0.1,0.4,0.1,0.6c-0.1,0.2-0.2,0.3-0.4,0.4l-6.1,2.8c-0.2,0.1-0.4,0.1-0.6,0.1c-0.2-0.1-0.3-0.2-0.4-0.4
			c-0.1-0.2-0.1-0.4-0.1-0.6c0.1-0.2,0.2-0.3,0.4-0.4l0.8-0.4l-0.3,0.3c-0.4,0.1-0.8,0-1.2-0.3c-0.4-0.2-0.7-0.6-0.9-1
			c-0.2-0.5-0.3-0.9-0.2-1.4c0.1-0.5,0.2-0.9,0.6-1.3c0.3-0.4,0.8-0.7,1.3-1c0.6-0.3,1.1-0.4,1.6-0.4c0.5,0,1,0.1,1.3,0.4
			c0.4,0.2,0.7,0.6,0.9,1.1c0.2,0.4,0.3,0.9,0.2,1.3c-0.1,0.4-0.2,0.8-0.5,1.1l-0.1-0.1l2.4-1.1c0.2-0.1,0.4-0.1,0.6-0.1
			S18.9,99.8,19,100.1z M15.1,99.4c-0.1-0.3-0.3-0.5-0.5-0.6c-0.2-0.1-0.5-0.2-0.8-0.2c-0.3,0-0.7,0.1-1,0.3c-0.6,0.3-1,0.6-1.1,1
			c-0.2,0.4-0.2,0.8,0,1.2c0.1,0.3,0.3,0.5,0.5,0.6c0.2,0.1,0.5,0.2,0.8,0.2s0.7-0.1,1-0.3c0.6-0.3,0.9-0.6,1.1-1
			C15.3,100.2,15.3,99.8,15.1,99.4z"/>
		<path d="M13.8,93.3c0.2,0.6,0.2,1.2,0,1.6c-0.2,0.4-0.7,0.8-1.4,1l-5.3,1.9C6.8,98,6.6,98,6.5,98s-0.3-0.2-0.4-0.5
			c-0.1-0.2-0.1-0.4,0-0.6c0.1-0.2,0.2-0.3,0.5-0.4l5.3-1.9c0.3-0.1,0.6-0.3,0.7-0.5c0.1-0.2,0.1-0.4,0-0.7c0-0.1,0-0.1-0.1-0.2
			c0-0.1,0-0.1-0.1-0.2c-0.1-0.1-0.1-0.2,0-0.2c0.1-0.1,0.2-0.1,0.4-0.2c0.2-0.1,0.3-0.1,0.5,0c0.1,0,0.2,0.1,0.3,0.3
			c0,0.1,0.1,0.1,0.1,0.2C13.7,93.2,13.8,93.3,13.8,93.3z"/>
		<path d="M12.7,89.9c0.1,0.4,0.1,0.8,0.1,1.2c-0.1,0.4-0.2,0.7-0.4,0.9c-0.2,0.3-0.5,0.4-0.8,0.5c-0.4,0.1-0.8,0.1-1.1-0.1
			c-0.3-0.1-0.6-0.5-0.8-0.9c-0.2-0.5-0.5-1.1-0.7-1.9l-0.2-0.6l0.8-0.2l0.2,0.6c0.1,0.5,0.3,0.9,0.4,1.1s0.3,0.5,0.4,0.5
			c0.1,0.1,0.3,0.1,0.5,0c0.3-0.1,0.4-0.2,0.6-0.4c0.1-0.2,0.1-0.5,0-0.8c-0.1-0.3-0.2-0.5-0.4-0.6c-0.2-0.2-0.4-0.3-0.6-0.3
			c-0.2-0.1-0.5-0.1-0.8,0l-1.3,0.4c-0.4,0.1-0.6,0.3-0.8,0.5c-0.1,0.2-0.1,0.5,0,0.9c0.1,0.2,0.2,0.5,0.3,0.7
			c0.1,0.2,0.3,0.5,0.5,0.7c0.1,0.1,0.2,0.3,0.2,0.4c0,0.1,0,0.2-0.1,0.3C8.5,92.9,8.4,93,8.3,93c-0.1,0-0.2,0-0.4,0
			c-0.1,0-0.2-0.1-0.3-0.2c-0.2-0.3-0.4-0.6-0.6-0.9c-0.2-0.3-0.3-0.6-0.3-0.9c-0.2-0.6-0.2-1-0.1-1.4c0.1-0.4,0.3-0.7,0.5-1
			c0.3-0.3,0.7-0.5,1.3-0.6l2.8-0.8c0.2-0.1,0.4-0.1,0.6,0c0.2,0.1,0.3,0.2,0.3,0.4s0,0.4-0.1,0.6c-0.1,0.2-0.3,0.3-0.5,0.3L11,88.6
			l0-0.1c0.3,0,0.5,0,0.8,0.1c0.2,0.1,0.4,0.3,0.6,0.5S12.6,89.6,12.7,89.9z"/>
		<path d="M13.5,83.8c0,0.2,0,0.3-0.1,0.4s-0.2,0.2-0.3,0.3s-0.3,0-0.5,0L10.7,84l0.6-0.1l-4.6,3c-0.2,0.1-0.3,0.2-0.5,0.2
			s-0.3,0-0.4-0.2c-0.1-0.1-0.2-0.3-0.2-0.5c0-0.2,0-0.3,0-0.5c0.1-0.1,0.2-0.2,0.4-0.4l3.7-2.3l0.1,0.4l-4.3-1
			c-0.2,0-0.4-0.1-0.5-0.2c-0.1-0.1-0.2-0.3-0.2-0.5c0-0.2,0-0.3,0.1-0.4c0.1-0.1,0.2-0.2,0.3-0.2c0.1,0,0.3,0,0.5,0l7.1,1.8
			c0.2,0.1,0.4,0.1,0.5,0.3C13.4,83.5,13.4,83.6,13.5,83.8z"/>
		<path d="M3.5,79.5c0,0.3,0,0.5-0.1,0.7c-0.1,0.2-0.3,0.3-0.6,0.3c-0.3,0-0.5,0-0.6-0.2c-0.2-0.1-0.2-0.4-0.3-0.6
			c0-0.3,0-0.5,0.1-0.7c0.1-0.2,0.3-0.3,0.6-0.3c0.2,0,0.4,0,0.6,0.2C3.3,79,3.4,79.2,3.5,79.5z M10.6,78.8c0,0.2,0,0.4-0.2,0.6
			c-0.1,0.1-0.3,0.2-0.6,0.2l-4.4,0.4c-0.3,0-0.5,0-0.6-0.1c-0.2-0.1-0.2-0.3-0.3-0.5c0-0.2,0-0.4,0.2-0.6c0.1-0.1,0.3-0.2,0.6-0.3
			l4.4-0.4c0.3,0,0.5,0,0.6,0.1S10.6,78.6,10.6,78.8z"/>
		<path d="M10.4,75.9c0,0.2-0.1,0.4-0.2,0.6c-0.1,0.1-0.3,0.2-0.6,0.2l-4.5,0.1c-0.2,0-0.4-0.1-0.6-0.2c-0.1-0.1-0.2-0.3-0.2-0.5
			c0-0.2,0.1-0.4,0.2-0.5c0.1-0.1,0.3-0.2,0.6-0.2l0.8,0l-0.3,0.1c-0.4-0.2-0.8-0.4-1-0.8c-0.2-0.4-0.3-0.8-0.4-1.3
			c0-0.5,0.1-0.9,0.2-1.2c0.2-0.3,0.4-0.5,0.8-0.7s0.8-0.2,1.3-0.3l2.9-0.1c0.2,0,0.4,0.1,0.6,0.2c0.1,0.1,0.2,0.3,0.2,0.5
			c0,0.2-0.1,0.4-0.2,0.6c-0.1,0.1-0.3,0.2-0.6,0.2l-2.8,0.1c-0.5,0-0.8,0.1-1,0.3s-0.3,0.4-0.3,0.8c0,0.4,0.2,0.8,0.4,1
			c0.3,0.3,0.6,0.4,1.1,0.4l2.6,0C10.1,75.2,10.3,75.4,10.4,75.9z"/>
		<path d="M12.7,67.3c0,0.4-0.1,0.8-0.2,1.2c-0.1,0.4-0.3,0.7-0.5,1.1c-0.1,0.1-0.2,0.2-0.3,0.3c-0.1,0-0.2,0-0.3,0
			c-0.1,0-0.2-0.1-0.3-0.2c-0.1-0.1-0.1-0.2-0.2-0.3c0-0.1,0-0.2,0.1-0.3c0.2-0.3,0.4-0.7,0.4-1c0.1-0.3,0.1-0.6,0.2-0.8
			c0-0.5,0-0.9-0.3-1.2c-0.2-0.3-0.6-0.5-1.1-0.5l-1.1-0.1l0-0.1c0.4,0.2,0.7,0.4,0.9,0.8s0.3,0.8,0.2,1.3c0,0.5-0.2,1-0.5,1.3
			c-0.3,0.4-0.6,0.6-1.1,0.8c-0.5,0.2-1,0.2-1.6,0.2c-0.4,0-0.8-0.1-1.2-0.3c-0.3-0.2-0.6-0.4-0.9-0.6s-0.4-0.5-0.5-0.9
			c-0.1-0.3-0.1-0.7-0.1-1.1c0-0.5,0.2-0.9,0.5-1.3c0.3-0.3,0.6-0.6,1-0.6l0.3,0.1l-0.8-0.1c-0.2,0-0.4-0.1-0.5-0.2
			c-0.1-0.1-0.2-0.3-0.1-0.6c0-0.2,0.1-0.4,0.2-0.5c0.1-0.1,0.3-0.2,0.6-0.1l4.6,0.4c0.9,0.1,1.6,0.4,2.1,0.9
			C12.6,65.6,12.8,66.4,12.7,67.3z M9.2,67.1c0-0.3,0-0.6-0.1-0.8c-0.1-0.2-0.3-0.4-0.6-0.6s-0.6-0.2-0.9-0.3c-0.5,0-1,0-1.3,0.3
			c-0.3,0.2-0.5,0.6-0.6,1.1c0,0.3,0,0.6,0.1,0.8c0.1,0.2,0.3,0.4,0.6,0.6c0.3,0.1,0.6,0.2,0.9,0.3c0.5,0,1,0,1.3-0.3
			C8.9,67.9,9.1,67.5,9.2,67.1z"/>
		<path d="M11.1,57.2c-0.1,0.4-0.3,0.7-0.5,1s-0.6,0.5-0.9,0.6c-0.4,0.1-0.7,0.1-1.1,0c-0.4-0.1-0.7-0.3-0.9-0.5
			C7.3,58,7.1,57.7,7,57.3s-0.1-0.8,0-1.2c0.1-0.4,0.3-0.7,0.5-1c0.3-0.3,0.6-0.5,0.9-0.6c0.4-0.1,0.7-0.1,1.1,0
			c0.4,0.1,0.7,0.3,1,0.5s0.4,0.6,0.6,0.9S11.2,56.8,11.1,57.2z"/>
		<path d="M14.4,50.2c-0.1,0.2-0.2,0.4-0.4,0.4c-0.2,0.1-0.4,0.1-0.6,0l-4.2-1.8c-0.2-0.1-0.4-0.2-0.4-0.4c-0.1-0.2-0.1-0.4,0-0.6
			c0.1-0.2,0.2-0.4,0.4-0.4c0.2-0.1,0.4-0.1,0.6,0l0.8,0.3l-0.3,0c-0.3-0.3-0.5-0.7-0.6-1.1c-0.1-0.4,0-0.9,0.2-1.3s0.4-0.8,0.7-1
			c0.3-0.2,0.6-0.3,1-0.3c0.4,0,0.8,0.1,1.3,0.3l2.7,1.1c0.2,0.1,0.4,0.2,0.5,0.4s0.1,0.4,0,0.6c-0.1,0.2-0.2,0.4-0.4,0.4
			c-0.2,0.1-0.4,0.1-0.6,0l-2.6-1.1c-0.4-0.2-0.8-0.2-1-0.2c-0.3,0.1-0.5,0.3-0.6,0.6c-0.2,0.4-0.2,0.8,0,1.1s0.4,0.6,0.9,0.8l2.4,1
			C14.5,49.4,14.6,49.8,14.4,50.2z"/>
		<path d="M18.2,42.4c-0.3,0.5-0.7,0.9-1.1,1.2c-0.4,0.3-0.9,0.4-1.4,0.4c-0.5,0-1.1-0.2-1.6-0.5c-0.4-0.2-0.7-0.5-1-0.8
			c-0.3-0.3-0.4-0.6-0.5-1c-0.1-0.4-0.1-0.7-0.1-1.1c0.1-0.4,0.2-0.8,0.4-1.2c0.3-0.5,0.7-0.9,1.1-1.2c0.4-0.3,0.9-0.4,1.4-0.4
			c0.5,0,1.1,0.2,1.6,0.5c0.4,0.2,0.7,0.5,1,0.8c0.3,0.3,0.4,0.6,0.5,1s0.1,0.7,0.1,1.1C18.6,41.6,18.4,42,18.2,42.4z M17.2,41.8
			c0.1-0.3,0.2-0.5,0.2-0.8s-0.1-0.5-0.3-0.8s-0.5-0.5-0.8-0.7c-0.6-0.3-1-0.4-1.5-0.3c-0.4,0.1-0.7,0.3-0.9,0.7
			c-0.1,0.3-0.2,0.5-0.2,0.8s0.1,0.5,0.3,0.8s0.5,0.5,0.8,0.7c0.6,0.3,1,0.4,1.5,0.3S17,42.2,17.2,41.8z"/>
		<path d="M21.4,37.1c-0.1,0.2-0.3,0.3-0.4,0.3c-0.2,0.1-0.4,0.1-0.6,0l-4.6-1.3c-0.2-0.1-0.3-0.1-0.4-0.3c-0.1-0.1-0.2-0.2-0.2-0.4
			s0.1-0.3,0.2-0.5c0.1-0.1,0.2-0.2,0.4-0.3s0.3,0,0.6,0.1l4.1,1.2l-0.2,0.2l-2.4-3.7c-0.1-0.2-0.2-0.3-0.2-0.4
			c0-0.1,0.1-0.3,0.2-0.4c0.1-0.1,0.2-0.2,0.4-0.3s0.3,0,0.5,0l4.2,1.3L22.7,33l-2.4-3.6c-0.1-0.2-0.2-0.4-0.2-0.5
			c0-0.1,0.1-0.3,0.2-0.4c0.1-0.2,0.2-0.2,0.4-0.3c0.1,0,0.3,0,0.4,0.1c0.1,0.1,0.2,0.2,0.3,0.4l2.5,4c0.1,0.2,0.2,0.4,0.2,0.6
			s-0.1,0.4-0.2,0.5s-0.3,0.3-0.4,0.3c-0.2,0.1-0.4,0.1-0.6,0l-4.3-1.2l0.4-0.5l2.4,3.7c0.1,0.2,0.2,0.4,0.2,0.6
			C21.6,36.7,21.6,36.9,21.4,37.1z"/>
		<path d="M30.4,29.8C30.2,30,30,30.1,29.8,30s-0.4-0.1-0.5-0.3l-4.5-4.9c-0.2-0.2-0.2-0.4-0.2-0.5c0-0.2,0.1-0.3,0.3-0.5
			c0.2-0.2,0.4-0.2,0.5-0.2c0.2,0,0.4,0.1,0.5,0.3l0.6,0.7l-0.3-0.2C26,24,25.9,23.6,26,23.1c0.1-0.4,0.3-0.8,0.7-1.2
			c0.4-0.3,0.8-0.6,1.2-0.6c0.5-0.1,0.9,0,1.4,0.2c0.5,0.2,0.9,0.5,1.3,1c0.4,0.5,0.7,0.9,0.9,1.4c0.2,0.5,0.2,0.9,0.1,1.4
			s-0.4,0.8-0.7,1.2c-0.4,0.3-0.8,0.5-1.2,0.6s-0.8,0-1.2-0.2l0.1-0.1l1.8,2c0.2,0.2,0.2,0.4,0.2,0.5S30.6,29.7,30.4,29.8z
			 M29.8,25.9c0.2-0.2,0.4-0.4,0.4-0.7c0.1-0.3,0.1-0.5-0.1-0.8c-0.1-0.3-0.3-0.6-0.6-0.9c-0.4-0.5-0.9-0.7-1.3-0.8
			s-0.8,0.1-1.1,0.4c-0.2,0.2-0.4,0.4-0.4,0.7c-0.1,0.3-0.1,0.5,0,0.8c0.1,0.3,0.3,0.6,0.6,0.9c0.4,0.5,0.9,0.7,1.3,0.8
			S29.5,26.2,29.8,25.9z"/>
		<path d="M35.2,22.9c-0.5,0.4-1,0.6-1.5,0.5c-0.5-0.1-1-0.4-1.4-1l-3.5-4.5c-0.2-0.2-0.2-0.4-0.2-0.6c0-0.2,0.1-0.3,0.3-0.5
			c0.2-0.1,0.4-0.2,0.6-0.2s0.4,0.1,0.5,0.3l3.4,4.4c0.2,0.3,0.5,0.5,0.7,0.5c0.2,0,0.5,0,0.7-0.2c0.1,0,0.1-0.1,0.1-0.1
			c0,0,0.1-0.1,0.1-0.1c0.1-0.1,0.2-0.1,0.2-0.1c0.1,0,0.2,0.1,0.3,0.3c0.1,0.2,0.2,0.3,0.2,0.4s-0.1,0.3-0.2,0.4
			c-0.1,0.1-0.1,0.1-0.2,0.2C35.4,22.7,35.3,22.8,35.2,22.9z"/>
		<path d="M38.1,20.8c-0.4,0.2-0.7,0.4-1.1,0.4c-0.4,0-0.7,0-1-0.1c-0.3-0.1-0.6-0.3-0.8-0.6c-0.2-0.4-0.3-0.7-0.3-1
			s0.3-0.7,0.6-1.1s0.9-0.8,1.6-1.3l0.5-0.3l0.5,0.7l-0.5,0.3c-0.4,0.3-0.7,0.5-1,0.7c-0.2,0.2-0.4,0.4-0.4,0.6c0,0.2,0,0.3,0.1,0.5
			c0.1,0.2,0.3,0.4,0.6,0.4c0.2,0,0.5,0,0.8-0.2c0.2-0.1,0.4-0.3,0.5-0.5s0.1-0.4,0.1-0.7c0-0.2-0.1-0.5-0.3-0.7l-0.8-1.2
			c-0.2-0.3-0.5-0.5-0.7-0.6c-0.2-0.1-0.5,0-0.9,0.3c-0.2,0.1-0.4,0.3-0.6,0.5c-0.2,0.2-0.4,0.4-0.6,0.7c-0.1,0.1-0.2,0.2-0.3,0.3
			c-0.1,0-0.2,0-0.3,0c-0.1,0-0.2-0.1-0.3-0.2c-0.1-0.1-0.1-0.2-0.1-0.3c0-0.1,0-0.3,0.1-0.4c0.2-0.3,0.5-0.6,0.7-0.9
			s0.5-0.4,0.7-0.6c0.5-0.3,0.9-0.5,1.3-0.6c0.4-0.1,0.8,0,1.1,0.2c0.3,0.2,0.7,0.5,1,1l1.6,2.4c0.1,0.2,0.2,0.4,0.2,0.6
			c0,0.2-0.1,0.3-0.3,0.4s-0.4,0.2-0.5,0.1c-0.2,0-0.3-0.2-0.5-0.4l-0.3-0.5l0.1-0.1c0.1,0.3,0.1,0.5,0.1,0.8s-0.1,0.5-0.3,0.7
			S38.4,20.6,38.1,20.8z"/>
		<path d="M44.2,19.6c-0.2,0.1-0.3,0.1-0.4,0.1c-0.1,0-0.3-0.1-0.3-0.2c-0.1-0.1-0.1-0.3-0.2-0.5l-0.1-2l0.3,0.6l-4.3-3.5
			c-0.1-0.1-0.2-0.3-0.3-0.4s0-0.3,0-0.4c0.1-0.1,0.2-0.3,0.4-0.4c0.2-0.1,0.3-0.1,0.5-0.1s0.3,0.1,0.5,0.3l3.3,2.8l-0.3,0.2
			l-0.4-4.4c0-0.2,0-0.4,0.1-0.6s0.2-0.2,0.4-0.3c0.2-0.1,0.3-0.1,0.4-0.1s0.2,0.1,0.3,0.2c0.1,0.1,0.1,0.3,0.1,0.5l0.5,7.3
			c0,0.2,0,0.4-0.1,0.6C44.5,19.5,44.3,19.6,44.2,19.6z"/>
		<path d="M45.2,8.8c-0.3,0.1-0.5,0.1-0.7,0.1c-0.2-0.1-0.3-0.2-0.4-0.4C44,8.2,44,8,44.1,7.8c0.1-0.2,0.3-0.3,0.5-0.4
			c0.3-0.1,0.5-0.1,0.7-0.1c0.2,0.1,0.3,0.2,0.4,0.5c0.1,0.2,0.1,0.4,0,0.6C45.7,8.5,45.5,8.7,45.2,8.8z M48.1,15.4
			c-0.2,0.1-0.4,0.1-0.6,0c-0.2-0.1-0.3-0.2-0.4-0.5l-1.7-4c-0.1-0.2-0.1-0.5-0.1-0.6c0.1-0.2,0.2-0.3,0.4-0.4
			c0.2-0.1,0.4-0.1,0.6,0c0.2,0.1,0.3,0.2,0.4,0.5l1.7,4c0.1,0.2,0.1,0.4,0.1,0.6C48.4,15.1,48.3,15.3,48.1,15.4z"/>
		<path d="M50.7,14.3c-0.2,0.1-0.4,0.1-0.6,0c-0.2-0.1-0.3-0.2-0.4-0.5l-1.5-4.3c-0.1-0.2-0.1-0.4,0-0.6c0.1-0.2,0.2-0.3,0.4-0.4
			s0.4-0.1,0.6,0c0.2,0.1,0.3,0.2,0.4,0.5L50,9.8l-0.2-0.2c0-0.5,0.2-0.9,0.5-1.2c0.3-0.3,0.6-0.6,1.1-0.7s0.8-0.2,1.2-0.1
			c0.3,0.1,0.6,0.2,0.9,0.5s0.5,0.7,0.7,1.2L55,12c0.1,0.2,0.1,0.4,0,0.6c-0.1,0.2-0.2,0.3-0.5,0.4c-0.2,0.1-0.4,0.1-0.6,0
			s-0.3-0.2-0.4-0.5l-0.9-2.7c-0.1-0.4-0.3-0.7-0.6-0.9c-0.2-0.1-0.5-0.2-0.9,0c-0.4,0.1-0.7,0.4-0.9,0.7c-0.2,0.3-0.2,0.7,0,1.2
			l0.8,2.5C51.4,13.8,51.2,14.1,50.7,14.3z"/>
		<path d="M59.6,13.9c-0.4,0.1-0.8,0.1-1.3,0.2c-0.4,0-0.8,0-1.2-0.1c-0.2,0-0.3-0.1-0.4-0.2c-0.1-0.1-0.1-0.2-0.1-0.3
			s0-0.2,0.1-0.3c0.1-0.1,0.1-0.2,0.2-0.2s0.2-0.1,0.4,0c0.4,0.1,0.7,0.1,1.1,0.1c0.3,0,0.6,0,0.8-0.1c0.5-0.1,0.9-0.3,1.1-0.6
			s0.3-0.7,0.1-1.2l-0.2-1.1l0.1,0c0,0.4-0.2,0.8-0.5,1.1s-0.7,0.5-1.2,0.6c-0.5,0.1-1,0.1-1.4-0.1c-0.4-0.2-0.8-0.4-1.1-0.8
			c-0.3-0.4-0.5-0.9-0.6-1.4c-0.1-0.4-0.1-0.8-0.1-1.2c0-0.4,0.2-0.7,0.3-1c0.2-0.3,0.4-0.6,0.7-0.8c0.3-0.2,0.6-0.4,1-0.4
			c0.5-0.1,0.9-0.1,1.4,0.1s0.7,0.4,0.9,0.8l-0.1,0.3l-0.2-0.8c-0.1-0.2,0-0.4,0.1-0.6c0.1-0.2,0.3-0.3,0.5-0.3
			c0.2-0.1,0.4,0,0.6,0.1s0.3,0.3,0.3,0.5l1,4.5c0.2,0.9,0.1,1.7-0.3,2.3C61.2,13.3,60.6,13.7,59.6,13.9z M58.8,10.5
			c0.3-0.1,0.6-0.2,0.7-0.4c0.2-0.2,0.3-0.4,0.4-0.7c0.1-0.3,0.1-0.6,0-1c-0.1-0.5-0.3-0.9-0.7-1.2c-0.3-0.3-0.7-0.3-1.2-0.2
			c-0.3,0.1-0.6,0.2-0.7,0.4C57.2,7.5,57,7.8,57,8.1c-0.1,0.3-0.1,0.6,0,1c0.1,0.5,0.3,0.9,0.7,1.2C58,10.5,58.4,10.6,58.8,10.5z"/>
		<path d="M68.8,9.3c-0.4,0-0.8,0-1.1-0.2c-0.3-0.2-0.6-0.4-0.8-0.7s-0.3-0.7-0.4-1.1c0-0.4,0.1-0.7,0.2-1.1s0.4-0.6,0.7-0.8
			c0.3-0.2,0.7-0.3,1.1-0.4c0.4,0,0.7,0,1.1,0.2C70,5.4,70.2,5.6,70.5,6c0.2,0.3,0.3,0.7,0.4,1.1c0,0.4-0.1,0.8-0.2,1.1
			c-0.2,0.3-0.4,0.6-0.7,0.8C69.5,9.1,69.2,9.3,68.8,9.3z"/>
	</g>
</g>
</svg>
