<?xml version="1.0" encoding="utf-8"?>
<!-- Generator: Adobe Illustrator 25.2.1, SVG Export Plug-In . SVG Version: 6.00 Build 0)  -->
<svg version="1.1" id="Ebene_1" xmlns="http://www.w3.org/2000/svg" xmlns:xlink="http://www.w3.org/1999/xlink" x="0px" y="0px"
     viewBox="0 0 378.6 378.6" style="enable-background:new 0 0 378.6 378.6;" xml:space="preserve">
<style type="text/css">
	.st0{fill:#FFFFFF;}
	.st1{fill:#261B12;}
</style>
    <circle class="st0" cx="189.3" cy="189.3" r="188.8"/>
    <g>
	<path class="st1" d="M208.6,117.9c0,4.4-3.5,7.9-7.9,7.9c-4.4,0-7.9-3.5-7.9-7.9v-16.2c0-4.4,3.5-7.9,7.9-7.9
		c4.4,0,7.9,3.5,7.9,7.9V117.9z M219.9,101.8L219.9,101.8c0-10.6-8.5-19.1-19.1-19.1c-10.6,0-19.1,8.5-19.1,19.1v17.6
		c0,10.6,8.5,19.1,19.1,19.1c2.8,0,5.5-0.6,7.9-1.7c0,0,0,27,0,27.2c0,4.4-3.5,7.9-7.9,7.9c-4.4,0-7.9-3.5-7.9-7.9v-17.4
		c0-2.7-2.7-4.9-5.6-4.9c-3,0-5.6,2.6-5.6,5.6v17.1c0,10.6,8.5,19.1,19.1,19.1c10.6,0,19.1-8.5,19.1-19.1V101.8z"/>
        <path class="st1" d="M163.8,164.3c0,4.4-3.5,7.9-7.9,7.9s-7.9-3.5-7.9-7.9c0-0.1,0-40.1,0-40.1l0,0c0-4.4,3.5-7.9,7.9-7.9
		s7.9,3.5,7.9,7.9V164.3z M175,123.8c0-10.6-8.5-19.1-19.1-19.1c-10.6,0-19.1,8.5-19.1,19.1v40.4c0,10.6,8.5,19.1,19.1,19.1
		c10.6,0,19.1-8.5,19.1-19.1V123.8z"/>
        <path class="st1" d="M163.8,252.3c0,4.4-3.5,7.9-7.9,7.9s-7.9-3.5-7.9-7.9c0-0.1,0-40.1,0-40.1l0,0c0-4.4,3.5-7.9,7.9-7.9
		s7.9,3.5,7.9,7.9V252.3z M175,211.9c0-10.6-8.5-19.1-19.1-19.1c-10.6,0-19.1,8.5-19.1,19.1v40.4c0,10.6,8.5,19.1,19.1,19.1
		c10.6,0,19.1-8.5,19.1-19.1V211.9z"/>
        <path class="st1" d="M130.1,143.1c0-10.6-8.5-19.1-19.1-19.1c-9.7,0-17.7,7.3-18.9,16.8c-2.4-1.1-5.2-1.8-8-1.8
		c-10.6,0-19.1,8.5-19.1,19.1v19.7c0,3,2.6,5.6,5.6,5.6s5.6-2.6,5.6-5.6v-19.7l0,0c0.1-4.3,3.5-7.8,7.9-7.8s7.8,3.5,7.9,7.8l0,0
		v19.7l0,0c0,3,2.6,5.6,5.6,5.6c3,0,5.6-2.6,5.6-5.6v-34.5c0-4.4,3.5-7.9,7.9-7.9c4.4,0,7.9,3.5,7.9,7.9v34.5c0,3,2.6,5.6,5.6,5.6
		s5.6-2.6,5.6-5.6C130.1,177.8,130.1,143.3,130.1,143.1"/>
        <path class="st1" d="M282.3,152.1L282.3,152.1c-0.1-2.9-2.6-5.3-5.5-5.3c-3,0-5.3,2.4-5.5,5.3l0,0v12c0,4.4-3.5,7.9-7.9,7.9h-17.5
		c-4.4,0-7.9-3.5-7.9-7.9v-40.3c0-4.4,3.5-7.9,7.9-7.9s7.9,3.5,7.9,7.9c0,4.4-3.5,7.9-7.9,7.9c-3,0-5.6,2.6-5.6,5.6
		c0,3,2.6,5.6,5.6,5.6c10.6,0,19.1-8.5,19.1-19.1s-8.5-19.1-19.1-19.1s-19.1,8.5-19.1,19.1v40.3c0,10.6,8.5,19.1,19.1,19.1h17.5l0,0
		c10.3-0.1,18.8-8.3,18.8-18.6V152.1z"/>
        <path class="st1" d="M208.8,231.8v41.3c-0.4,4.1-3.8,7.3-7.9,7.3c-4.4,0-7.9-3.5-7.9-7.9c0-0.1,0-40.1,0-40.1l0,0
		c0-4.4,3.5-7.9,7.9-7.9C205,224.5,208.4,227.8,208.8,231.8 M219.9,198.7c0-3-2.6-5.6-5.6-5.6c-3,0-5.6,2.6-5.6,5.6v16.3
		c-2.4-1.1-5.1-1.7-7.9-1.7c-10.6,0-19.1,8.5-19.1,19.1v40.4c0,10.6,8.5,19.1,19.1,19.1c10.6,0,19.1-8.5,19.1-19.1
		C219.9,272.5,219.9,198.7,219.9,198.7"/>
        <path class="st1" d="M130.1,212.3v-1c0-10.2-8.7-18.2-19.1-18.2c-10,0-18.2,7.8-18.9,17.5v19.7l0,0c0.4,10.2,8.7,18.5,19.1,18.5
		s19.1-8.1,19.1-18.3v-0.7c0-3-2.6-5.6-5.6-5.6c-3,0-5.6,2.6-5.6,5.6c0,0.2,0,0.7,0,0.7c0,4-3.8,7.2-7.9,7.2c-4.1,0-7.5-3.2-7.9-7.2
		v-18.8c0.4-4,3.8-7.2,7.9-7.2c4.1,0,7.9,3.2,7.9,7.2c0,0,0,0.5,0,0.7c0,3,2.6,5.6,5.6,5.6C127.5,217.7,130.1,215.3,130.1,212.3"/>
        <path class="st1" d="M238,227.8c0-0.1,0-15.3,0-15.3l0,0c0-4.4,3.5-8,7.9-8s7.9,3.5,7.9,7.9v15.3c0,4.4-3.5,7.9-7.9,7.9
		S238,232.2,238,227.8 M309.3,225c0-10.4-8.4-19.1-18.7-19.1c-5.5,0-8.5-3.3-8.5-7.3c0-2.8-2.3-5.6-5.3-5.6c-3,0-5.6,2.6-5.6,5.6
		c0,0,0,52,0,52.2c0,4.4-3.5,7.9-7.9,7.9h-18.6c-3.8,0-6.9-3.9-6.9-7.9v-5.7c2.4,1.1,5.2,1.7,8,1.7c10.6,0,19.1-8.5,19.1-19.1v-15.7
		c0-10.6-8.5-19.1-19.1-19.1s-19.2,8.5-19.2,19.1v38.7c0,10.6,8.5,19.1,19.1,19.1h17.7c10.3,0,18.6-8.3,18.8-18.6l0,0v-35.6
		c0,0,2.1,1.8,7.4,1.8c4.9,0,8.6,3.4,8.6,7.4s-3.8,7.9-8,7.9c-3.5,0-5.1,2.7-5.1,5.6s2.3,5.6,5,5.6h0.2
		C300.6,244,309.3,235.2,309.3,225"/>
        <path class="st1" d="M276.8,142.8c4.3,0,7.7-3.4,7.7-7.7s-3.4-7.7-7.7-7.7s-7.7,3.4-7.7,7.7C269.1,139.3,272.5,142.8,276.8,142.8"
        />
        <path class="st1" d="M70.7,208.4c4.3,0,7.7-3.4,7.7-7.7s-3.4-7.7-7.7-7.7c-4.3,0-7.7,3.4-7.7,7.7S66.4,208.4,70.7,208.4"/>
        <path class="st1" d="M301.9,183.3c4.3,0,7.7-3.4,7.7-7.7c0-4.3-3.4-7.7-7.7-7.7c-4.3,0-7.7,3.4-7.7,7.7
		C294.2,179.9,297.7,183.3,301.9,183.3"/>
</g>
</svg>
